# xmcd
#
# Track frame offsets:
#	150
#	15290
#	30677
#	51327
#	70189
#	88389
#	107724
#	125310
#	139900
#	152985
#	169578
#
# Disc length: 2518 seconds
#
# Revision: 0
# Processed by: cddbd v1.5.1PL0 Copyright (c) Steve Scherf et al.
# Submitted via: MusicManager 7.0.6.0 
#
DISCID=9109d40b
DTITLE=Todd Deatherage - Dream Upon A Fallen Star
DYEAR=2001
DGENRE=country
TTITLE0=Man of Me
TTITLE1=Desperate
TTITLE2=Too Late Now
TTITLE3=Over You
TTITLE4=Lose Myself
TTITLE5=My Payback
TTITLE6=I Wouldn't Lie To You
TTITLE7=Make It Thru
TTITLE8=She's Leaving Me
TTITLE9=Walking in the Rain
TTITLE10=Say the Things You Should
EXTD=
EXTT0=
EXTT1=
EXTT2=
EXTT3=
EXTT4=
EXTT5=
EXTT6=
EXTT7=
EXTT8=
EXTT9=
EXTT10=
PLAYORDER=
